<svg width="48" height="13" viewBox="0 0 48 13" fill="none" xmlns="http://www.w3.org/2000/svg">
<path d="M0.992188 0.726562H5.375C6.5 0.726562 7.41406 1.07552 8.11719 1.77344C8.82031 2.46615 9.17188 3.375 9.17188 4.5C9.17188 5.61979 8.8099 6.52865 8.08594 7.22656C7.36719 7.92448 6.4349 8.27344 5.28906 8.27344H3.00781V12H0.992188V0.726562ZM3.00781 2.375V6.64844H4.83594C5.5599 6.64844 6.1224 6.46094 6.52344 6.08594C6.92448 5.71094 7.125 5.18229 7.125 4.5C7.125 3.82292 6.92448 3.29948 6.52344 2.92969C6.1276 2.5599 5.56771 2.375 4.84375 2.375H3.00781Z" fill="white"/>
<path d="M10.5 12V3.71875H12.4453V12H10.5ZM12.2344 2.32812C12.026 2.53125 11.7708 2.63281 11.4688 2.63281C11.1667 2.63281 10.9115 2.53125 10.7031 2.32812C10.4948 2.11979 10.3906 1.86979 10.3906 1.57812C10.3906 1.28125 10.4948 1.03125 10.7031 0.828125C10.9115 0.619792 11.1667 0.515625 11.4688 0.515625C11.7708 0.515625 12.026 0.619792 12.2344 0.828125C12.4479 1.03125 12.5547 1.28125 12.5547 1.57812C12.5547 1.86979 12.4479 2.11979 12.2344 2.32812Z" fill="white"/>
<path d="M16.1016 7.17188L19.2188 3.71875H21.4609L18.1484 7.28125L21.6016 12H19.3516L16.7344 8.46094L16.0781 9.125V12H14.1328V0.726562H16.0781V7.17188H16.1016Z" fill="white"/>
<path d="M25.3672 10.6641C25.9245 10.6641 26.3932 10.5 26.7734 10.1719C27.1589 9.83854 27.3516 9.42448 27.3516 8.92969V8.29688L25.4375 8.41406C24.9688 8.44531 24.6042 8.5625 24.3438 8.76562C24.0885 8.96354 23.9609 9.22656 23.9609 9.55469C23.9609 9.89323 24.0885 10.1641 24.3438 10.3672C24.6042 10.5651 24.9453 10.6641 25.3672 10.6641ZM24.7812 12.1328C23.974 12.1328 23.3099 11.901 22.7891 11.4375C22.2734 10.974 22.0156 10.3724 22.0156 9.63281C22.0156 8.89844 22.2865 8.31771 22.8281 7.89062C23.375 7.46354 24.1536 7.21875 25.1641 7.15625L27.3516 7.03125V6.4375C27.3516 6.00521 27.2135 5.66927 26.9375 5.42969C26.6667 5.1901 26.2891 5.07031 25.8047 5.07031C25.3516 5.07031 24.9818 5.17188 24.6953 5.375C24.4089 5.57812 24.2344 5.85417 24.1719 6.20312H22.3672C22.4089 5.41667 22.7448 4.77865 23.375 4.28906C24.0104 3.79427 24.8464 3.54688 25.8828 3.54688C26.9089 3.54688 27.7292 3.79688 28.3438 4.29688C28.9635 4.79688 29.2734 5.46354 29.2734 6.29688V12H27.3984V10.6797H27.3594C27.125 11.1224 26.7708 11.4766 26.2969 11.7422C25.8229 12.0026 25.3177 12.1328 24.7812 12.1328Z" fill="white"/>
<path d="M33.9375 12.1328C32.8906 12.1328 32.0547 11.7474 31.4297 10.9766C30.8099 10.2057 30.5 9.16406 30.5 7.85156C30.5 6.54427 30.8099 5.50521 31.4297 4.73438C32.0547 3.96354 32.8906 3.57812 33.9375 3.57812C34.5208 3.57812 35.0365 3.71615 35.4844 3.99219C35.9375 4.26823 36.276 4.64062 36.5 5.10938H36.5469V0.726562H38.4922V12H36.5859V10.5859H36.5547C36.3255 11.0599 35.9792 11.4375 35.5156 11.7188C35.0573 11.9948 34.5312 12.1328 33.9375 12.1328ZM34.5234 5.17969C33.8984 5.17969 33.4036 5.42188 33.0391 5.90625C32.6745 6.38542 32.4922 7.03646 32.4922 7.85938C32.4922 8.6875 32.6719 9.34115 33.0312 9.82031C33.3958 10.2995 33.8932 10.5391 34.5234 10.5391C35.138 10.5391 35.6302 10.2969 36 9.8125C36.3698 9.32812 36.5547 8.67708 36.5547 7.85938C36.5547 7.04688 36.3698 6.39844 36 5.91406C35.6302 5.42448 35.138 5.17969 34.5234 5.17969Z" fill="white"/>
<path d="M47.4688 3.71875V12H45.5938V10.5625H45.5547C45.0964 11.6198 44.2526 12.1484 43.0234 12.1484C42.1224 12.1484 41.4062 11.875 40.875 11.3281C40.349 10.776 40.0859 10.0234 40.0859 9.07031V3.71875H42.0312V8.67969C42.0312 9.27344 42.1719 9.72656 42.4531 10.0391C42.7396 10.3516 43.1562 10.5078 43.7031 10.5078C44.2604 10.5078 44.7031 10.3255 45.0312 9.96094C45.3594 9.59635 45.5234 9.11198 45.5234 8.50781V3.71875H47.4688Z" fill="white"/>
<symbol xmlns="http://www.w3.org/2000/svg" viewBox="0 0 11 14" id="fire">
    <path d="M10.533 6.327a5.429 5.429 0 00-1.295-1.8l-.455-.418a.126.126 0 00-.203.052l-.203.583c-.127.365-.36.739-.69 1.106a.098.098 0 01-.064.031.086.086 0 01-.067-.023.092.092 0 01-.031-.075c.058-.94-.223-2.002-.84-3.156-.508-.96-1.216-1.708-2.1-2.23l-.646-.38a.125.125 0 00-.187.114l.034.75c.023.513-.036.966-.177 1.342-.171.461-.418.89-.734 1.274a4.62 4.62 0 01-.742.72A5.51 5.51 0 00.566 6.116a5.434 5.434 0 00-.133 4.536 5.489 5.489 0 002.928 2.9 5.498 5.498 0 002.139.428c.742 0 1.46-.144 2.14-.427a5.446 5.446 0 001.747-1.167A5.41 5.41 0 0011 8.528c0-.762-.156-1.503-.467-2.201zM8.64 11.628a4.43 4.43 0 01-3.14 1.288 4.43 4.43 0 01-3.14-1.288 4.34 4.34 0 01-1.297-3.1c0-.68.153-1.331.454-1.937A4.42 4.42 0 012.78 5.06c.339-.26.646-.557.915-.888.39-.476.697-1.007.91-1.578a3.75 3.75 0 00.189-.726c.376.347.692.765.956 1.256.522.978.763 1.848.716 2.589a1.156 1.156 0 002.012.847 5.09 5.09 0 00.538-.713c.218.28.401.585.546.913a4.33 4.33 0 01.376 1.767c0 1.17-.461 2.272-1.297 3.1z"></path>
  </symbol>
    <symbol xmlns="http://www.w3.org/2000/svg" viewBox="0 0 14 12" id="photo">
    <path d="M13.5.5H.5A.5.5 0 000 1v10a.5.5 0 00.5.5h13a.5.5 0 00.5-.5V1a.5.5 0 00-.5-.5zm-.625 9.875H1.125v-.623l2.164-2.568 2.345 2.782L9.283 5.64l3.592 4.26v.475zm0-2.028L9.378 4.2a.124.124 0 00-.19 0L5.633 8.412l-2.25-2.667a.124.124 0 00-.19 0L1.125 8.198V1.625h11.75v6.722zM3.75 5.125a1.375 1.375 0 100-2.75 1.375 1.375 0 000 2.75zm0-1.813a.437.437 0 11.001.874.437.437 0 01-.001-.873z"></path>
  </symbol>
  <symbol xmlns="http://www.w3.org/2000/svg" viewBox="0 0 14 12" id="video">
    <path d="M13.25 2.723l-2 1.152V1.5a1 1 0 00-1-1H1a1 1 0 00-1 1v9a1 1 0 001 1h9.25a1 1 0 001-1V8.125l2 1.152a.5.5 0 00.75-.432V3.156a.5.5 0 00-.75-.433zm-3.125 7.652h-9v-8.75h9v8.75zm2.75-2.61l-1.625-.934v-1.66l1.625-.937v3.532zM2.25 3.626H4a.125.125 0 00.125-.125v-.75A.125.125 0 004 2.625H2.25a.125.125 0 00-.125.125v.75c0 .069.056.125.125.125z"></path>
  </symbol>
</svg>
